# xmcd
#
# Track frame offsets:
#	150
#	18675
#	30033
#	52366
#	65071
#	78971
#	93316
#	102241
#	118305
#	135343
#	147170
#	161299
#	171828
#	185560
#	199218
#	215144
#	236413
#	248982
#	264629
#	279675
#
# Disc length: 4038 seconds
#
# Revision: 1
# Processed by: cddbd v1.5.2PL0 Copyright (c) Steve Scherf et al.
# Submitted via: EZCDAudioConverter 2.1.7.1
#
DISCID=290fc414
DTITLE=V/A - Seafaring Strangers: Private Yacht
DYEAR=1900
DGENRE=
TTITLE0=Jim Spencer - Wrap Myself Up In Your Love
TTITLE1=Michael Miglio - Never Gonna Let You Go
TTITLE2=Ned Doheny - Before I Thrill Again
TTITLE3=Johnny Gamboa - That Good Old Feeling Back Again
TTITLE4=Solenoid - Acquaintances
TTITLE5=Steps - Your Burning Love
TTITLE6=Jeff Harrington - Kristi
TTITLE7=Paul Skyland - Give Me Your Love
TTITLE8=Rob Galbraith - Tell Me With Your Eyes (Just Be You)
TTITLE9=Calvin Johnson - Dance Of Love
TTITLE10=Salty Miller - One More Time
TTITLE11=Canyon - Country Lovin’
TTITLE12=A.J. Loria - Please Analyze
TTITLE13=Gary Marks - Sailing
TTITLE14=Country Comfort - To Be Lonely
TTITLE15=Madness - Madam Operator
TTITLE16=Chuck Senrick - Don't Be So Nice
TTITLE17=Breathers - Don't It Make You Feel
TTITLE18=Damon Danielson - How Long Has It Been
TTITLE19=Rudy Norman - Back To The Streets
EXTD=
EXTT0=
EXTT1=
EXTT2=
EXTT3=
EXTT4=
EXTT5=
EXTT6=
EXTT7=
EXTT8=
EXTT9=
EXTT10=
EXTT11=
EXTT12=
EXTT13=
EXTT14=
EXTT15=
EXTT16=
EXTT17=
EXTT18=
EXTT19=
PLAYORDER=
